<svg width="193" height="143" viewBox="0 0 193 143" fill="none" xmlns="http://www.w3.org/2000/svg">
<g clip-path="url(#clip0_1542_153)">
<path opacity="0.1" d="M2.07715 68.5596C5.12474 80.3903 11.5708 90.6173 21.7575 95.5749C42.9345 105.878 90.6941 100.564 126.339 94.4646C144.777 91.3099 160.983 82.6039 172.756 70.3519L2.07715 68.5596Z" fill="#E3E3E3"/>
<path opacity="0.1" d="M188.996 12.8705H169.439C168.511 12.8705 167.749 12.1797 167.749 11.3355C167.749 10.4913 168.511 9.79872 169.439 9.79872H172.822C171.892 9.79872 171.132 9.10787 171.132 8.26194C171.132 7.416 171.892 6.72692 172.822 6.72692H170.407C169.477 6.72692 168.716 6.03607 168.716 5.19014C168.716 4.3442 169.477 3.65512 170.407 3.65512H180.615C178.35 2.69816 175.702 2.01788 172.651 1.66012C144.816 -1.58791 134.878 0.560408 131.373 2.76865C127.003 5.55538 122.15 7.48903 117.067 8.46813C99.8934 11.688 67.777 15.5617 38.6679 7.23448C24.2002 3.08764 13.4468 10.086 7.00244 21.7846H192.393C192.151 18.385 191.426 15.2444 190.096 12.4969C189.781 12.7412 189.394 12.8727 188.996 12.8705Z" fill="#2EA71A"/>
<path opacity="0.1" d="M0.419429 43.8652C-0.331773 50.7458 -0.0764175 57.6998 1.17738 64.506L172.888 70.2143C177.615 65.2901 181.631 59.7244 184.819 53.6798L0.419429 43.8652ZM68.3331 58.5898H64.9522C65.8821 58.5898 66.6435 59.2824 66.6435 60.1266C66.6435 60.9707 65.8821 61.6616 64.9522 61.6616H45.3946C44.4665 61.6616 43.705 60.9707 43.705 60.1266C43.705 59.2824 44.4665 58.5898 45.3946 58.5898H48.7773C47.8474 58.5898 47.0877 57.8989 47.0877 57.0548C47.0877 56.2106 47.8474 55.518 48.7773 55.518H46.3614C45.4315 55.518 44.67 54.8271 44.67 53.983C44.67 53.1388 45.4315 52.4462 46.3614 52.4462H65.9189C66.8488 52.4462 67.6085 53.137 67.6085 53.983C67.6085 54.8289 66.8488 55.518 65.9189 55.518H68.3331C69.263 55.518 70.0227 56.2088 70.0227 57.0548C70.0227 57.9007 69.263 58.5898 68.3331 58.5898Z" fill="#E3E3E3"/>
<path opacity="0.1" d="M192.4 21.8904L4.93365 26.0319C2.65278 31.3596 1.14039 37.3833 0.443848 43.6256H189.115C190.343 39.9735 191.254 36.2215 191.838 32.4117C192.402 28.7442 192.626 25.1966 192.4 21.8904ZM38.5063 35.4694H35.1253C36.0552 35.4694 36.8167 36.162 36.8167 37.0062C36.8167 37.8504 36.0552 38.543 35.1253 38.543H15.5678C14.6396 38.543 13.8782 37.8504 13.8782 37.0062C13.8782 36.162 14.6396 35.4694 15.5678 35.4694H18.9505C18.0206 35.4694 17.2609 34.7785 17.2609 33.9344C17.2609 33.0902 18.0206 32.3976 18.9505 32.3976H16.5345C15.6046 32.3976 14.8431 31.7067 14.8431 30.8626C14.8431 30.0184 15.6046 29.3258 16.5345 29.3258H36.0921C37.0219 29.3258 37.7816 30.0166 37.7816 30.8626C37.7816 31.7085 37.0219 32.3976 36.0921 32.3976H38.5063C39.4362 32.3976 40.1959 33.0902 40.1959 33.9344C40.1959 34.7785 39.4362 35.4694 38.5063 35.4694Z" fill="#2EA71A"/>
<path opacity="0.1" d="M95.6352 137.655C138.947 137.655 174.058 134.41 174.058 130.408C174.058 126.406 138.947 123.161 95.6352 123.161C52.3232 123.161 17.2119 126.406 17.2119 130.408C17.2119 134.41 52.3232 137.655 95.6352 137.655Z" fill="#2EA71A"/>
<path opacity="0.1" d="M149.958 133.578C149.448 133.598 146.546 133.578 146.546 133.578C146.503 133.534 146.463 133.487 146.426 133.437C147.168 133.184 148.772 132.803 149.958 133.578Z" fill="black"/>
<path opacity="0.1" d="M158.259 133.578C157.748 133.598 154.846 133.578 154.846 133.578C154.804 133.534 154.764 133.487 154.727 133.437C155.466 133.184 157.069 132.803 158.259 133.578Z" fill="black"/>
<path opacity="0.1" d="M145.418 60.7839L145.191 61.1363L144.614 60.8279L144.918 60.3591C145.119 60.4544 145.291 60.6009 145.418 60.7839Z" fill="black"/>
<path d="M142.528 75.7534C143.4 75.7534 144.107 75.272 144.107 74.6783C144.107 74.0846 143.4 73.6033 142.528 73.6033C141.656 73.6033 140.949 74.0846 140.949 74.6783C140.949 75.272 141.656 75.7534 142.528 75.7534Z" fill="#575A89"/>
<path d="M91.0574 134.52C120.951 134.52 145.184 110.178 145.184 80.1507C145.184 50.1235 120.951 25.7817 91.0574 25.7817C61.164 25.7817 36.9307 50.1235 36.9307 80.1507C36.9307 110.178 61.164 134.52 91.0574 134.52Z" fill="#E3E3E3"/>
<path d="M119.458 107.472C119.458 116.055 106.025 108.206 91.6243 108.206C77.2232 108.206 62.6572 115.731 62.6572 107.148C62.6572 102.254 67.2997 95.4479 73.9598 90.5045C78.9777 86.7788 85.1396 84.1106 91.3295 84.1106C97.6949 84.1106 103.93 86.9991 108.904 90.9644C115.182 95.9643 119.458 102.682 119.458 107.472Z" fill="#444053"/>
<path d="M108.903 90.961C101.248 89.8031 87.403 88.3915 73.96 90.501C78.9779 86.7754 85.1397 84.1072 91.3297 84.1072C97.6933 84.1072 103.929 86.9957 108.903 90.961Z" fill="#F6F8FB"/>
<path opacity="0.05" d="M62.657 41.7715C62.657 41.7715 46.3523 52.2417 46.4857 68.6193C46.619 84.997 62.657 41.7715 62.657 41.7715Z" fill="black"/>
<path d="M145.163 12.2009C145.163 12.2009 130.39 11.3073 132.133 21.7053C132.133 21.7053 131.782 23.5417 133.445 24.377C133.445 24.377 133.471 23.6069 134.959 23.8677C135.489 23.9568 136.028 23.9828 136.564 23.9453C137.289 23.8958 137.978 23.6099 138.526 23.131C138.526 23.131 142.679 21.4092 144.295 14.5906C144.295 14.5906 145.49 13.1032 145.442 12.7225L142.949 13.7905C142.949 13.7905 143.8 15.5969 143.125 17.0985C143.125 17.0985 143.044 13.8575 142.565 13.9262C142.468 13.9421 141.27 14.5519 141.27 14.5519C141.27 14.5519 142.735 17.6994 141.621 19.9852C141.621 19.9852 142.04 16.108 140.803 14.7792L139.049 15.8084C139.049 15.8084 140.761 19.0582 139.6 21.7106C139.6 21.7106 139.898 17.643 138.68 16.0587L137.089 17.3047C137.089 17.3047 138.698 20.5086 137.717 22.7081C137.717 22.7081 137.589 17.9726 136.745 17.6148C136.745 17.6148 135.354 18.8485 135.142 19.3543C135.142 19.3543 136.243 21.6789 135.561 22.9055C135.561 22.9055 135.142 19.7508 134.798 19.7332C134.798 19.7332 133.412 21.8234 133.266 23.2579C133.266 23.2579 133.327 21.1255 134.461 19.5341C134.461 19.5341 133.12 19.7649 132.34 20.6391C132.34 20.6391 132.555 19.1604 134.796 19.0318C134.796 19.0318 135.942 17.4457 136.249 17.3505C136.249 17.3505 134.012 17.1619 132.655 17.7664C132.655 17.7664 133.848 16.3724 136.657 17.0051L138.237 15.7185C138.237 15.7185 135.292 15.3132 134.043 15.7608C134.043 15.7608 135.48 14.5272 138.659 15.426L140.37 14.3985C140.37 14.3985 137.859 13.8557 136.363 14.0461C136.363 14.0461 137.942 13.1913 140.87 14.1183L142.098 13.5667C142.098 13.5667 140.258 13.2036 139.719 13.1472C139.18 13.0909 139.152 12.9393 139.152 12.9393C140.321 12.7484 141.52 12.8881 142.614 13.3429C142.614 13.3429 145.207 12.3648 145.163 12.2009Z" fill="#2C9E19"/>
<path d="M130.011 7.57811C130.011 7.57811 123.344 7.17277 124.123 11.8712C124.123 11.8712 123.967 12.7013 124.716 13.0785C124.716 13.0785 124.726 12.726 125.4 12.8493C125.64 12.8889 125.883 12.9007 126.125 12.8846C126.452 12.8611 126.764 12.7319 127.013 12.5163C127.013 12.5163 128.888 11.7373 129.618 8.65668C129.618 8.65668 130.158 7.98522 130.144 7.81251L129.018 8.2954C129.018 8.2954 129.404 9.11137 129.1 9.78988C129.1 9.78988 129.064 8.32536 128.848 8.3606C128.804 8.3606 128.262 8.64258 128.262 8.64258C128.262 8.64258 128.925 10.0648 128.425 11.0976C128.425 11.0976 128.614 9.34577 128.056 8.7448L127.263 9.21006C127.263 9.21006 128.037 10.6799 127.513 11.8783C127.513 11.8783 127.646 10.0401 127.097 9.32462L126.377 9.88681C126.377 9.88681 127.104 11.3337 126.662 12.3277C126.662 12.3277 126.604 10.1882 126.221 10.026C126.221 10.026 125.593 10.5829 125.497 10.8121C125.497 10.8121 125.995 11.8695 125.686 12.4176C125.686 12.4176 125.497 10.9918 125.335 10.9865C125.335 10.9865 124.709 11.9294 124.644 12.5727C124.674 11.974 124.86 11.3938 125.183 10.8896C124.822 10.9582 124.489 11.1316 124.225 11.3883C124.225 11.3883 124.321 10.7204 125.337 10.6623C125.337 10.6623 125.855 9.94673 125.993 9.90267C125.993 9.90267 124.983 9.81808 124.37 10.0912C124.37 10.0912 124.909 9.46032 126.179 9.73877L126.881 9.15895C126.881 9.15895 125.551 8.98272 124.986 9.17658C124.986 9.17658 125.635 8.61967 127.072 9.02678L127.844 8.56151C127.844 8.56151 126.711 8.31654 126.034 8.40466C126.034 8.40466 126.748 8.0187 128.071 8.43815L128.623 8.18789C128.623 8.18789 127.792 8.02399 127.549 7.99932C127.307 7.97465 127.292 7.90591 127.292 7.90591C127.818 7.8179 128.359 7.87893 128.853 8.08215C128.853 8.08215 130.03 7.65213 130.011 7.57811Z" fill="#2C9E19"/>
<path opacity="0.1" d="M188.275 128.654C190.885 128.654 193 128.295 193 127.852C193 127.41 190.885 127.051 188.275 127.051C185.666 127.051 183.55 127.41 183.55 127.852C183.55 128.295 185.666 128.654 188.275 128.654Z" fill="#E3E3E3"/>
<path opacity="0.1" d="M8.20586 141.994C10.8154 141.994 12.9308 141.635 12.9308 141.192C12.9308 140.749 10.8154 140.39 8.20586 140.39C5.59637 140.39 3.48096 140.749 3.48096 141.192C3.48096 141.635 5.59637 141.994 8.20586 141.994Z" fill="#E3E3E3"/>
<path opacity="0.1" d="M35.6341 143C38.2436 143 40.359 142.641 40.359 142.198C40.359 141.755 38.2436 141.396 35.6341 141.396C33.0246 141.396 30.9092 141.755 30.9092 142.198C30.9092 142.641 33.0246 143 35.6341 143Z" fill="#E3E3E3"/>
<path d="M177.934 137.644C181.83 137.644 184.989 137.108 184.989 136.446C184.989 135.784 181.83 135.247 177.934 135.247C174.037 135.247 170.879 135.784 170.879 136.446C170.879 137.108 174.037 137.644 177.934 137.644Z" fill="#2C9E19"/>
<path d="M180.85 134.488C181.172 134.224 181.407 133.868 181.524 133.467C181.61 133.064 181.438 132.577 181.054 132.429C180.622 132.264 180.161 132.565 179.812 132.868C179.462 133.171 179.061 133.517 178.603 133.453C178.838 133.239 179.014 132.967 179.114 132.664C179.214 132.361 179.233 132.037 179.171 131.724C179.151 131.595 179.097 131.473 179.013 131.372C178.773 131.115 178.34 131.224 178.052 131.427C177.139 132.072 176.885 133.316 176.88 134.437C176.789 134.033 176.866 133.612 176.864 133.203C176.862 132.794 176.748 132.322 176.401 132.105C176.185 131.989 175.943 131.932 175.699 131.939C175.288 131.924 174.832 131.964 174.551 132.265C174.201 132.641 174.294 133.268 174.597 133.675C174.901 134.082 175.36 134.347 175.783 134.631C176.123 134.834 176.414 135.111 176.632 135.443C176.658 135.49 176.679 135.539 176.696 135.589H179.266C179.841 135.296 180.374 134.925 180.85 134.488Z" fill="#2C9E19"/>
<path d="M10.4111 119.71C10.4111 119.71 11.3743 120.976 9.96541 122.883C8.55653 124.79 7.39504 126.407 7.85999 127.599C7.85999 127.599 9.98471 124.049 11.7199 123.998C13.4551 123.947 12.3129 121.845 10.4111 119.71Z" fill="#2C9E19"/>
<path opacity="0.1" d="M10.4114 119.71C10.4951 119.833 10.5612 119.966 10.6079 120.107C12.2958 122.098 13.1941 123.958 11.5729 124.004C10.0605 124.048 8.23934 126.762 7.81299 127.447C7.82789 127.5 7.84546 127.553 7.86562 127.604C7.86562 127.604 9.99034 124.055 11.7256 124.004C13.4608 123.952 12.3133 121.845 10.4114 119.71Z" fill="black"/>
<path d="M12.2028 121.323C12.2028 121.769 12.1519 122.13 12.0905 122.13C12.0291 122.13 11.98 121.778 11.98 121.323C11.98 120.868 12.0414 121.087 12.1046 121.087C12.1677 121.087 12.2028 120.877 12.2028 121.323Z" fill="#FFD037"/>
<path d="M12.8098 121.855C12.4203 122.068 12.0817 122.197 12.0519 122.142C12.0221 122.088 12.3151 121.873 12.7046 121.66C13.0941 121.446 12.9397 121.601 12.9695 121.66C12.9993 121.718 13.2064 121.642 12.8098 121.855Z" fill="#FFD037"/>
<path d="M5.31953 119.71C5.31953 119.71 4.3563 120.976 5.76342 122.883C7.17054 124.79 8.33378 126.407 7.86884 127.599C7.86884 127.599 5.74236 124.049 4.00891 123.998C2.27545 123.947 3.41588 121.845 5.31953 119.71Z" fill="#2C9E19"/>
<path opacity="0.1" d="M5.31963 119.71C5.23521 119.832 5.16901 119.966 5.12312 120.107C3.43528 122.098 2.53522 123.958 4.15814 124.004C5.66878 124.048 7.49172 126.762 7.91631 127.447C7.902 127.5 7.88502 127.553 7.86543 127.604C7.86543 127.604 5.73896 124.055 4.0055 124.004C2.27204 123.952 3.41598 121.845 5.31963 119.71Z" fill="black"/>
<path d="M3.52832 121.323C3.52832 121.769 3.57745 122.13 3.63886 122.13C3.70026 122.13 3.74939 121.778 3.74939 121.323C3.74939 120.868 3.68798 121.087 3.62657 121.087C3.56517 121.087 3.52832 120.877 3.52832 121.323Z" fill="#FFD037"/>
<path d="M2.91227 121.855C3.30177 122.068 3.64214 122.197 3.67197 122.142C3.7018 122.088 3.40879 121.873 3.01929 121.66C2.62979 121.446 2.78243 121.601 2.75436 121.66C2.72629 121.718 2.52276 121.642 2.91227 121.855Z" fill="#FFD037"/>
<path d="M3.83545 127.438C3.83545 127.438 6.53038 127.355 7.34448 126.774C8.15857 126.192 11.4904 125.5 11.6922 126.421C11.8939 127.343 15.7416 131.056 12.6993 131.081C9.65693 131.106 5.63032 130.604 4.81973 130.108C4.00915 129.613 3.83545 127.438 3.83545 127.438Z" fill="#FC6022"/>
<path opacity="0.2" d="M12.7501 130.766C9.70781 130.79 5.6812 130.288 4.87061 129.793C4.25302 129.416 4.00739 128.06 3.92493 127.435H3.83545C3.83545 127.435 4.0109 129.618 4.81622 130.114C5.62154 130.609 9.65342 131.111 12.6957 131.086C13.573 131.086 13.8765 130.764 13.8607 130.3C13.7379 130.584 13.4046 130.76 12.7501 130.766Z" fill="black"/>
<path d="M71.8139 73.0219C72.8438 72.9637 77.6915 72.5971 80.7707 70.833C81.2652 70.5408 81.8238 70.3755 82.3971 70.3519C83.3761 70.3237 84.5025 70.7343 83.7814 73.0324C82.6129 76.7916 75.8282 81.0212 71.6174 80.7868C67.5679 80.5613 62.7641 78.9223 59.5919 73.1593C59.288 72.6049 59.1383 71.9785 59.1586 71.3458C59.1954 70.1827 59.6165 68.7252 61.7903 70.3501C64.7274 72.5443 70.2997 72.9602 71.4173 73.0219C71.5494 73.029 71.6818 73.029 71.8139 73.0219Z" fill="#444053"/>
<path d="M110.764 73.0219C111.794 72.9637 116.642 72.5971 119.721 70.833C120.215 70.5408 120.774 70.3755 121.347 70.3519C122.326 70.3237 123.453 70.7343 122.732 73.0324C121.563 76.7916 114.778 81.0212 110.568 80.7868C106.518 80.5613 101.714 78.9223 98.5421 73.1593C98.2382 72.6049 98.0885 71.9785 98.1087 71.3458C98.1456 70.1827 98.5667 68.7252 100.741 70.3501C103.678 72.5443 109.25 72.9602 110.368 73.0219C110.5 73.029 110.632 73.029 110.764 73.0219Z" fill="#444053"/>
</g>
<defs>
<clipPath id="clip0_1542_153">
<rect width="193" height="143" fill="white"/>
</clipPath>
</defs>
</svg>
