<svg width="23" height="27" viewBox="0 0 23 27" fill="none" xmlns="http://www.w3.org/2000/svg">
<path d="M11.8827 0C12.2076 0.0893438 12.5487 0.129955 12.8736 0.219299C14.831 0.763484 16.9347 2.98083 16.9347 5.0926V8.47954H21.8648C22.1328 8.47954 22.5227 8.9425 22.6039 9.18617C22.6851 9.42983 22.6039 9.54354 22.6039 9.71411C22.5679 9.75509 22.5452 9.8061 22.5389 9.86031C22.1734 14.3681 20.9145 18.9003 20.4515 23.4081C20.2806 24.2 19.8616 24.9167 19.2554 25.4542C18.6493 25.9917 17.8875 26.322 17.0809 26.397C12.7355 26.3483 9.32422 26.5107 4.99512 26.3158C4.30561 26.1578 3.67401 25.8102 3.17167 25.3122C2.66933 24.8141 2.31627 24.1855 2.15237 23.4974L0 9.2349C0.0450543 9.05822 0.135435 8.89635 0.262213 8.7653C0.388991 8.63424 0.547776 8.53855 0.72287 8.48766H5.62052V5.10072C5.62052 2.62346 8.31707 0.227421 10.6806 0H11.8827ZM15.0666 8.48766V5.2388C15.0666 3.54939 13.1173 1.98993 11.5091 1.90871C9.73032 1.81937 7.52922 3.35445 7.52922 5.2388V8.48766H15.0666Z" fill="#00891D"/>
<path d="M6.61108 12.1265H9.00711L9.03148 17.2028L18.8268 9.70605L6.70855 22.6365L6.61108 12.1265Z" fill="white"/>
<path d="M12.9868 17.2603C13.0518 17.3577 17.9413 22.6371 17.9413 22.6371H14.6925L11.4436 19.0065L12.9868 17.2603Z" fill="url(#paint0_linear_3717_77)"/>
<defs>
<linearGradient id="paint0_linear_3717_77" x1="11.4274" y1="19.9487" x2="17.9413" y2="19.9487" gradientUnits="userSpaceOnUse">
<stop stop-color="#F5841F"/>
<stop offset="1" stop-color="#FF5C01"/>
</linearGradient>
</defs>
</svg>
